<svg width="49" height="48" viewBox="0 0 49 48" fill="none" xmlns="http://www.w3.org/2000/svg">
<g clip-path="url(#clip0_2_152)">
<path d="M18.0901 0H4.59753C2.33816 0 0.5 1.83816 0.5 4.09753V17.5901C0.5 19.8495 2.33816 21.6877 4.59753 21.6877H18.0901C20.3495 21.6877 22.1877 19.8495 22.1877 17.5901V4.09753C22.1877 1.83816 20.3495 0 18.0901 0ZM18.6755 17.5901C18.6755 17.9129 18.4129 18.1755 18.0901 18.1755H4.59753C4.27475 18.1755 4.01216 17.9129 4.01216 17.5901V4.09753C4.01216 3.77475 4.27475 3.51216 4.59753 3.51216H18.0901C18.4129 3.51216 18.6755 3.77475 18.6755 4.09753V17.5901Z" fill="url(#paint0_linear_2_152)"/>
<path d="M44.4025 0H30.9099C28.6505 0 26.8123 1.83816 26.8123 4.09753V17.5901C26.8123 19.8495 28.6505 21.6877 30.9099 21.6877H44.4025C46.6618 21.6877 48.5 19.8495 48.5 17.5901V4.09753C48.5 1.83816 46.6618 0 44.4025 0Z" fill="url(#paint1_linear_2_152)"/>
<path d="M18.0901 26.3124H4.59753C2.33816 26.3124 0.5 28.1505 0.5 30.4099V43.9025C0.5 46.1619 2.33816 48 4.59753 48H18.0901C20.3495 48 22.1877 46.1619 22.1877 43.9025V30.4099C22.1877 28.1505 20.3495 26.3124 18.0901 26.3124Z" fill="url(#paint2_linear_2_152)"/>
<path d="M44.4025 26.3124H30.9099C28.6505 26.3124 26.8123 28.1505 26.8123 30.4099V43.9025C26.8123 46.1619 28.6505 48 30.9099 48H44.4025C46.6618 48 48.5 46.1619 48.5 43.9025V30.4099C48.5 28.1505 46.6618 26.3124 44.4025 26.3124ZM44.9878 43.9025C44.9878 44.2253 44.7253 44.4879 44.4025 44.4879H30.9099C30.5871 44.4879 30.3245 44.2253 30.3245 43.9025V30.4099C30.3245 30.0871 30.5871 29.8245 30.9099 29.8245H44.4025C44.7253 29.8245 44.9878 30.0871 44.9878 30.4099V43.9025Z" fill="url(#paint3_linear_2_152)"/>
</g>
<defs>
<linearGradient id="paint0_linear_2_152" x1="0.5" y1="0" x2="25.891" y2="5.9902" gradientUnits="userSpaceOnUse">
<stop stop-color="#31C1E1"/>
<stop offset="1" stop-color="#B24FFF"/>
</linearGradient>
<linearGradient id="paint1_linear_2_152" x1="26.8123" y1="0" x2="52.2033" y2="5.9902" gradientUnits="userSpaceOnUse">
<stop stop-color="#31C1E1"/>
<stop offset="1" stop-color="#B24FFF"/>
</linearGradient>
<linearGradient id="paint2_linear_2_152" x1="0.5" y1="26.3124" x2="25.891" y2="32.3026" gradientUnits="userSpaceOnUse">
<stop stop-color="#31C1E1"/>
<stop offset="1" stop-color="#B24FFF"/>
</linearGradient>
<linearGradient id="paint3_linear_2_152" x1="26.8123" y1="26.3124" x2="52.2033" y2="32.3026" gradientUnits="userSpaceOnUse">
<stop stop-color="#31C1E1"/>
<stop offset="1" stop-color="#B24FFF"/>
</linearGradient>
<clipPath id="clip0_2_152">
<rect width="48" height="48" fill="white" transform="translate(0.5)"/>
</clipPath>
</defs>
</svg>
